<svg xmlns="http://www.w3.org/2000/svg" width="201" height="40" fill="none"><path fill="#5454D4" d="M30.122 17.21a5.356 5.356 0 0 0-1.548 4.308l-.027-.027a6.364 6.364 0 0 1-1.86 5.055 6.455 6.455 0 0 1-5.088 1.848l.027.027a5.45 5.45 0 0 0-5.433 3.087 5.383 5.383 0 0 0 1.08 6.125 5.471 5.471 0 0 0 6.166 1.067 5.403 5.403 0 0 0 3.103-5.4l.028.027a6.364 6.364 0 0 1 1.86-5.055 6.455 6.455 0 0 1 5.088-1.848l-.028-.027a5.435 5.435 0 0 0 5.643-3.674 5.382 5.382 0 0 0-2.306-6.299 5.46 5.46 0 0 0-6.7.786h-.005Z"/><path fill="#FF7143" d="m19.203 24.953-.029-.026a5.396 5.396 0 0 0 4.338-1.536 5.32 5.32 0 0 0 1.55-4.309l.027.027a6.365 6.365 0 0 1 1.861-5.055 6.455 6.455 0 0 1 5.088-1.848l-.028-.026a5.45 5.45 0 0 0 5.436-3.084 5.383 5.383 0 0 0-1.077-6.126 5.471 5.471 0 0 0-6.167-1.07 5.403 5.403 0 0 0-3.104 5.4l-.026-.028a6.362 6.362 0 0 1-1.86 5.055 6.453 6.453 0 0 1-5.089 1.848l.027.028a5.396 5.396 0 0 0-4.338 1.536 5.32 5.32 0 0 0-1.55 4.308l-.026-.026a6.365 6.365 0 0 1-1.861 5.054 6.456 6.456 0 0 1-5.087 1.849l.026.026a5.45 5.45 0 0 0-5.436 3.084 5.383 5.383 0 0 0 1.078 6.126 5.471 5.471 0 0 0 6.166 1.07 5.403 5.403 0 0 0 3.104-5.4l.028.026a6.364 6.364 0 0 1 1.86-5.055 6.455 6.455 0 0 1 5.088-1.848Z"/><path fill="#5454D4" d="M9.282 22.002a5.35 5.35 0 0 0 1.547-4.308l.028.027a6.364 6.364 0 0 1 1.861-5.056 6.454 6.454 0 0 1 5.09-1.847l-.028-.027a5.449 5.449 0 0 0 5.433-3.083 5.381 5.381 0 0 0-1.077-6.124 5.47 5.47 0 0 0-6.164-1.07 5.401 5.401 0 0 0-3.104 5.398l-.026-.027a6.365 6.365 0 0 1-1.86 5.055 6.455 6.455 0 0 1-5.089 1.848l.027.027A5.435 5.435 0 0 0 .278 16.49a5.381 5.381 0 0 0 2.307 6.298 5.46 5.46 0 0 0 6.7-.786h-.003Z"/><path fill="#19191B" d="M55.136 7.334h4.396v21.254h-4.396V7.334Z"/><path fill="#19191B" fill-rule="evenodd" d="M66.795 14.16a7.716 7.716 0 0 0-4.773 7.15 7.604 7.604 0 0 0 2.26 5.462 7.707 7.707 0 0 0 5.507 2.224 7.768 7.768 0 0 0 7.179-4.77 7.68 7.68 0 0 0-1.698-8.414 7.805 7.805 0 0 0-8.475-1.652Zm2.932 3.894c1.85-.034 3.382 1.419 3.433 3.256.05.911-.286 1.801-.926 2.455a3.3 3.3 0 0 1-2.445.988c-1.85 0-3.355-1.48-3.372-3.319-.017-1.838 1.46-3.347 3.31-3.38ZM95.078 27.855V14.03l-4.28-.003v1.485a5.22 5.22 0 0 0-4.279-1.892c-4.02.126-7.212 3.4-7.212 7.395 0 3.995 3.193 7.269 7.212 7.394a5.22 5.22 0 0 0 4.28-1.892v1.33a2.891 2.891 0 0 1-.903 2.348 2.933 2.933 0 0 1-2.409.767 3.353 3.353 0 0 1-3.34-1.834l-3.752 2.155a7.507 7.507 0 0 0 6.946 3.53c3.898 0 7.737-2.068 7.737-6.96Zm-6.367-10.202a3.527 3.527 0 0 1 2.09 3.365 3.283 3.283 0 0 1-1.018 2.472 3.328 3.328 0 0 1-2.528.91 3.553 3.553 0 0 1-3.3-2.21 3.513 3.513 0 0 1 .835-3.865 3.57 3.57 0 0 1 3.921-.672ZM102.341 14.16a7.715 7.715 0 0 0-4.773 7.15 7.604 7.604 0 0 0 2.26 5.462 7.706 7.706 0 0 0 5.507 2.224 7.769 7.769 0 0 0 7.179-4.77 7.68 7.68 0 0 0-1.698-8.414 7.804 7.804 0 0 0-8.475-1.652Zm2.932 3.894a3.363 3.363 0 0 1 3.433 3.256c.05.911-.286 1.801-.926 2.455a3.301 3.301 0 0 1-2.445.988c-1.85 0-3.355-1.48-3.372-3.319-.017-1.838 1.46-3.347 3.31-3.38ZM116.781 7.708a2.62 2.62 0 0 0-1.629 2.422 2.656 2.656 0 0 0 2.638 2.62 2.638 2.638 0 0 0 2.437-1.618 2.608 2.608 0 0 0-.572-2.855 2.65 2.65 0 0 0-2.874-.569Zm3.213 6.323h-4.398l-.006 14.559h4.404V14.03ZM137.084 26.6a7.282 7.282 0 0 0 1.893-5.29 7.281 7.281 0 0 0-1.892-5.29 7.377 7.377 0 0 0-5.112-2.396 5.521 5.521 0 0 0-4.366 1.775V14.03h-4.396v20.38h4.396V27.22a5.52 5.52 0 0 0 4.366 1.777 7.38 7.38 0 0 0 5.111-2.396Zm-6.048-8.667c1.915-.032 3.497 1.476 3.545 3.377a3.315 3.315 0 0 1-.942 2.552 3.359 3.359 0 0 1-2.544 1c-1.915 0-3.472-1.534-3.488-3.436-.016-1.902 1.515-3.461 3.429-3.493Z" clip-rule="evenodd"/><path fill="#19191B" d="M152.544 24.22c0 3.35-2.93 4.776-6.094 4.776a6.426 6.426 0 0 1-6.302-3.465l3.809-2.154a2.407 2.407 0 0 0 2.487 1.717c1.054 0 1.582-.32 1.582-.901 0-1.603-7.21-.758-7.21-5.794 0-3.175 2.697-4.775 5.745-4.775a6.42 6.42 0 0 1 5.714 3.114l-3.751 2.01a2.13 2.13 0 0 0-1.963-1.282c-.763 0-1.232.294-1.232.815.006 1.66 7.215.553 7.215 5.94ZM168.603 14.031V28.59h-4.396v-1.37a5.022 5.022 0 0 1-4.189 1.777c-2.961 0-5.477-2.095-5.477-6.03v-8.936h4.396v8.297c-.074.702.166 1.4.657 1.91s1.183.78 1.892.737c1.612 0 2.725-.93 2.725-2.998v-7.942l4.392-.004ZM193.812 19.65v8.938h-4.396v-8.56c0-1.456-.703-2.387-2.109-2.387-1.466 0-2.287 1.02-2.287 2.737v8.21h-4.395v-8.56c0-1.456-.703-2.387-2.111-2.387-1.466 0-2.286 1.02-2.286 2.737v8.21h-4.396V14.03h4.396v1.339a4.51 4.51 0 0 1 3.927-1.746 4.369 4.369 0 0 1 3.839 1.92 4.841 4.841 0 0 1 4.25-1.92c3.364.002 5.568 2.388 5.568 6.028ZM197.531 13.941c1.802 0 3.262-1.45 3.262-3.24 0-1.79-1.46-3.242-3.262-3.242s-3.263 1.451-3.263 3.241 1.461 3.241 3.263 3.241Z"/></svg>